<svg xmlns="http://www.w3.org/2000/svg" xml:space="preserve" width="2048" height="2048" style="shape-rendering:geometricPrecision;text-rendering:geometricPrecision;image-rendering:optimizeQuality;fill-rule:evenodd;clip-rule:evenodd"><defs><style>.fil0{fill:none}.fil4{fill:#00897b}.fil5{fill:#ec407a}</style></defs><g id="Layer_x0020_1"><path class="fil0" d="M0 0h2048v2048H0z"/><path class="fil0" d="M255.999 255.999h1536v1536h-1536z"/><path class="fil0" d="M255.999 255.999h1536v1536h-1536z"/><path class="fil0" d="M255.999 255.999h1536v1536h-1536z"/><path style="fill:#424242" d="M1614.92 1673.7v59.15z"/><path d="M1614.92 1792.01H433.43c-65.202 0-118.285-53.104-118.285-118.306v-1299.4c0-65.203 53.084-118.306 118.285-118.306h1181.49c64.826 0 117.93 53.104 117.93 118.306v1299.4c0 65.203-53.104 118.306-117.93 118.306z" style="fill:#ef6c00"/><path style="fill:#ffe0b2" d="M433.433 374.301V1673.7H1614.63l.29-1299.399z"/><path class="fil4" d="M528.78 463.988h179.275v178.799H528.78z"/><path class="fil5" d="M528.78 777.734h179.275v178.799H528.78z"/><path class="fil4" d="M528.78 1091.47h179.275v178.8H528.78z"/><path class="fil5" d="M528.78 1405.21h179.275v178.8H528.78zM799.171 463.988h179.275v178.799H799.171z"/><path class="fil4" d="M799.171 777.734h179.275v178.799H799.171zM799.171 1091.47h179.275v178.8H799.171zM799.171 1405.21h179.275v178.8H799.171zM1069.56 463.988h179.28v178.799h-179.28zM1069.56 777.734h179.28v178.799h-179.28z"/><path class="fil5" d="M1069.56 1091.47h179.28v178.8h-179.28z"/><path class="fil4" d="M1069.56 1405.21h179.28v178.8h-179.28zM1339.96 463.988h179.28v178.799h-179.28zM1339.96 777.734h179.28v178.799h-179.28zM1339.96 1091.47h179.28v178.8h-179.28z"/><path class="fil5" d="M1339.96 1405.21h179.28v178.8h-179.28z"/></g></svg>